<svg width="13" height="9" viewBox="0 0 13 9" fill="none" xmlns="http://www.w3.org/2000/svg">
<path d="M8.09858 0.157508C7.99112 0.266809 7.9309 0.413954 7.9309 0.567235C7.9309 0.720515 7.99112 0.86766 8.09858 0.976961L10.7983 3.69577H0.571044C0.48961 3.68724 0.407294 3.69593 0.32943 3.72125C0.251566 3.74658 0.179893 3.78798 0.119057 3.84278C0.05822 3.89758 0.00957748 3.96456 -0.023718 4.03936C-0.0570134 4.11416 -0.0742187 4.19513 -0.0742188 4.27701C-0.0742187 4.35889 -0.0570134 4.43985 -0.023718 4.51466C0.00957748 4.58946 0.05822 4.65643 0.119057 4.71123C0.179893 4.76603 0.251566 4.80744 0.32943 4.83277C0.407294 4.85809 0.48961 4.86677 0.571044 4.85825H10.7983L8.09223 7.61517C7.98626 7.72525 7.92706 7.8721 7.92706 8.0249C7.92706 8.17769 7.98626 8.32455 8.09223 8.43462C8.14474 8.48725 8.20712 8.529 8.27579 8.55749C8.34447 8.58598 8.41808 8.60064 8.49243 8.60064C8.56677 8.60064 8.64039 8.58598 8.70906 8.55749C8.77773 8.529 8.84011 8.48725 8.89263 8.43462L12.5389 4.69309C12.5884 4.63832 12.6291 4.57617 12.6596 4.50887C12.6901 4.4388 12.7053 4.36298 12.704 4.28654C12.7046 4.21123 12.6904 4.13655 12.662 4.06678C12.6337 3.99702 12.5918 3.93353 12.5389 3.87999L8.89263 0.170213C8.79186 0.0670976 8.6555 0.00637864 8.51144 0.000474631C8.36738 -0.00542937 8.22651 0.0439277 8.11764 0.138451L8.09858 0.157508Z" fill="white"/>
</svg>
