<svg width="34" height="34" viewBox="0 0 34 34" fill="none" xmlns="http://www.w3.org/2000/svg">
<path d="M30.3612 0H3.64637C2.67929 0 1.75182 0.384169 1.068 1.068C0.384169 1.75182 0 2.67929 0 3.64637L0 30.3612C0 31.3283 0.384169 32.2557 1.068 32.9396C1.75182 33.6234 2.67929 34.0076 3.64637 34.0076H14.0376V22.445H9.2765V17.0038H14.0659V12.8567C14.0659 8.13347 16.8999 5.53567 21.1697 5.53567C22.5844 5.55436 23.9958 5.6775 25.3923 5.90409V10.5329H23.0118C20.6785 10.5329 19.9417 11.9782 19.9417 13.4708V17.0038H25.1656L24.3343 22.445H19.9417V34.0076H30.3328C30.8141 34.0113 31.2913 33.9197 31.737 33.7382C32.1826 33.5566 32.588 33.2886 32.9296 32.9496C33.2712 32.6107 33.5423 32.2074 33.7273 31.7632C33.9123 31.3189 34.0076 30.8424 34.0076 30.3612V3.64637C34.0076 2.67929 33.6234 1.75182 32.9396 1.068C32.2557 0.384169 31.3283 0 30.3612 0V0Z" fill="white"/>
</svg>
