<svg width="34" height="34" viewBox="0 0 34 34" fill="none" xmlns="http://www.w3.org/2000/svg">
<path d="M30.3612 0H3.64637C2.67929 0 1.75182 0.384169 1.068 1.068C0.384169 1.75182 0 2.67929 0 3.64637L0 30.3612C0 31.3283 0.384169 32.2557 1.068 32.9396C1.75182 33.6234 2.67929 34.0076 3.64637 34.0076H30.3612C31.3283 34.0076 32.2557 33.6234 32.9396 32.9396C33.6234 32.2557 34.0076 31.3283 34.0076 30.3612V3.64637C34.0076 2.67929 33.6234 1.75182 32.9396 1.068C32.2557 0.384169 31.3283 0 30.3612 0V0ZM26.6487 12.0538V12.6962C26.6624 14.5441 26.3118 16.3767 25.617 18.0891C24.9221 19.8015 23.8966 21.3602 22.5991 22.6761C21.3016 23.992 19.7575 25.0394 18.0551 25.7583C16.3527 26.4772 14.5252 26.8536 12.6773 26.866C12.6115 26.8754 12.5447 26.8754 12.4789 26.866C9.77009 26.8732 7.11667 26.0991 4.83663 24.6366C5.23489 24.6822 5.63549 24.7042 6.03634 24.7027C8.29917 24.7171 10.5001 23.9645 12.2805 22.5678C11.229 22.5642 10.2056 22.2277 9.35705 21.6066C8.50853 20.9855 7.87848 20.1116 7.55723 19.1104C8.30164 19.24 9.06523 19.2078 9.79606 19.0159C8.68254 18.7823 7.68291 18.1736 6.96421 17.2916C6.24552 16.4095 5.85129 15.3076 5.84741 14.1698V14.1037C6.53209 14.4912 7.29999 14.7083 8.08624 14.7366C7.40541 14.2802 6.84754 13.6631 6.46199 12.9397C6.07644 12.2164 5.87509 11.4092 5.87575 10.5896C5.8695 9.70693 6.10119 8.83892 6.54645 8.07679C7.80379 9.60422 9.36704 10.8514 11.1356 11.7381C12.9041 12.6248 14.8387 13.1314 16.8148 13.2252C16.5635 12.1549 16.6728 11.0315 17.1257 10.0298C17.5787 9.02802 18.3499 8.20398 19.3195 7.68578C20.2891 7.16758 21.4028 6.98425 22.4873 7.16429C23.5719 7.34434 24.5666 7.87767 25.3167 8.68137C26.4213 8.48719 27.485 8.10709 28.4624 7.55723C28.0924 8.7054 27.3166 9.67934 26.2803 10.2967C27.2578 10.1787 28.2126 9.91773 29.1142 9.52211C28.443 10.5006 27.6091 11.3569 26.6487 12.0538Z" fill="white"/>
</svg>
