<svg width="34" height="34" viewBox="0 0 34 34" fill="none" xmlns="http://www.w3.org/2000/svg">
<path d="M30.3612 34.0076H3.64637C2.67929 34.0076 1.75182 33.6234 1.068 32.9396C0.384169 32.2557 0 31.3283 0 30.3612L0 3.64637C0 2.67929 0.384169 1.75182 1.068 1.068C1.75182 0.384169 2.67929 0 3.64637 0H30.3612C31.3283 0 32.2557 0.384169 32.9396 1.068C33.6234 1.75182 34.0076 2.67929 34.0076 3.64637V30.3612C34.0076 31.3283 33.6234 32.2557 32.9396 32.9396C32.2557 33.6234 31.3283 34.0076 30.3612 34.0076ZM16.6637 8.63414C16.5881 8.63414 9.59769 8.63414 7.85952 9.10647C7.38113 9.23675 6.94529 9.49026 6.59553 9.84168C6.24576 10.1931 5.99432 10.6301 5.8663 11.1091C5.54427 12.9112 5.38618 14.7387 5.39398 16.5692C5.38577 18.3998 5.54386 20.2274 5.8663 22.0293C5.99862 22.5031 6.25198 22.9343 6.60146 23.2805C6.95094 23.6266 7.38451 23.8759 7.85952 24.0037C9.59769 24.476 16.5881 24.476 16.6637 24.476C16.7393 24.476 23.7297 24.476 25.4584 24.0037C25.936 23.8811 26.3724 23.6337 26.7227 23.2867C27.073 22.9397 27.3246 22.5057 27.4517 22.0293C27.7787 20.228 27.9368 18.4 27.924 16.5692C27.937 14.7416 27.7788 12.9167 27.4517 11.1186C27.3292 10.6434 27.0855 10.2082 26.7444 9.85549C26.4033 9.50279 25.9765 9.24469 25.5057 9.10647C23.7297 8.64359 16.7298 8.63414 16.6637 8.63414ZM14.3587 19.97V13.2252L20.2439 16.5787L14.3587 19.9228V19.97Z" fill="white"/>
</svg>
